<svg xmlns="http://www.w3.org/2000/svg" version="1.1" xmlns:xlink="http://www.w3.org/1999/xlink" xmlns:svgjs="http://svgjs.com/svgjs" width="1440" height="560" preserveAspectRatio="none" viewBox="0 0 1440 560"><g mask="url(&quot;#SvgjsMask2436&quot;)" fill="none"><rect width="1440" height="560" x="0" y="0" fill="url(#SvgjsLinearGradient2437)"></rect><path d="M0 0L155.51 0L0 56.37z" fill="rgba(255, 255, 255, .1)"></path><path d="M0 56.37L155.51 0L536.5799999999999 0L0 199.57z" fill="rgba(255, 255, 255, .075)"></path><path d="M0 199.57L536.5799999999999 0L724.79 0L0 291.87z" fill="rgba(255, 255, 255, .05)"></path><path d="M0 291.87L724.79 0L1106.23 0L0 295.93z" fill="rgba(255, 255, 255, .025)"></path><path d="M1440 560L1148.1399999999999 560L1440 532.95z" fill="rgba(0, 0, 0, .1)"></path><path d="M1440 532.95L1148.1399999999999 560L582.0599999999998 560L1440 289.49z" fill="rgba(0, 0, 0, .075)"></path><path d="M1440 289.49L582.06 560L546.28 560L1440 269.69z" fill="rgba(0, 0, 0, .05)"></path><path d="M1440 269.69L546.28 560L368.01 560L1440 120.16999999999999z" fill="rgba(0, 0, 0, .025)"></path></g><defs><mask id="SvgjsMask2436"><rect width="1440" height="560" fill="#ffffff"></rect></mask><linearGradient x1="50%" y1="0%" x2="50%" y2="100%" gradientUnits="userSpaceOnUse" id="SvgjsLinearGradient2437"><stop stop-color="rgba(0, 158, 94, 1)" offset="0"></stop><stop stop-color="rgba(8, 134, 186, 1)" offset="0.71"></stop></linearGradient></defs></svg>